<svg width="118" height="60" viewBox="0 0 118 60" xmlns="http://www.w3.org/2000/svg"><g fill="#FFF" fill-rule="evenodd"><path d="M0 30.1133617C0 14.5120851 8.5255 5.55676596 17.5448043.468255319 17.5448043.468255319 18.283587.0316595745 18.4233913-.000255319149 18.5644783.0316595745 19.3019783.468255319 19.3019783.468255319 28.6868261 5.98314894 36.8467826 14.5120851 36.8467826 30.1133617L36.8673043 46.2622979 31.971587 46.2622979 31.9536304 30.4057021C31.9536304 17.2708085 25.6855217 10.3363404 18.4233913 5.95378723 10.6777174 10.3363404 4.89571739 17.2669787 4.89571739 30.4057021L4.91495652 46.2622979 9.98767391 46.2622979 9.99921739 30.0661277C9.99921739 23.4444255 13.664913 19.6069787 17.4255217 17.471234 17.8308261 17.2401702 18.1976522 17.057617 18.532413 16.9235745 18.8851304 17.0422979 19.2647826 17.2835745 19.6393043 17.471234 23.5217609 19.7486809 27.0630435 23.4342128 27.0630435 30.0661277L27.0271304 59.1635745C25.5790652 57.6788936 23.9334783 56.3142128 22.131413 55.1027234L22.1788696 30.1733617C22.1788696 26.2708085 20.5730435 24.0954894 18.5118913 22.6414468 16.3814783 24.0725106 14.8885217 26.2197447 14.8885217 30.1733617L14.8859565 51.3942128C10.6123043 49.7805957 5.86023913 48.8895319.854217391 48.8895319.572043478 48.8895319.295 48.8895319.0205217391 48.8971915L.0205217391 46.2622979M58.7514304 45C58.3461261 45.2348936 57.4059739 45.3523404 55.9322565 45.3523404L55.9322565 45.3689362 55.9322565 46.3940426C57.9472348 46.3148936 59.6800391 46.2765957 61.1319522 46.2765957 62.5838652 46.2765957 64.3064087 46.3148936 66.2983 46.3940426L66.2983 45.3689362 66.2983 45.3523404C64.7796913 45.3523404 63.813887 45.2348936 63.4034522 45 62.9917348 44.7638298 62.7698435 44.2046809 62.7364957 43.32 62.6800609 39.9804255 62.6518435 37.0174468 62.6518435 34.4297872L62.7531696 23.9604255 63.9524087 23.9757447C66.7664522 23.9757447 68.3748435 24.0319149 68.7801478 24.1442553 69.1867348 24.2565957 69.4342783 24.7046809 69.5240609 25.4885106L69.7600609 27.8923404 70.7566478 27.8923404C70.7669087 26.8378723 70.7964087 25.9302128 70.8413 25.1693617 70.8964522 24.407234 70.9875174 23.4995745 71.1106478 22.4476596L61.0729522 22.5651064 51.0352565 22.4476596C51.1481261 23.4995745 51.2327783 24.407234 51.289213 25.1693617 51.3341043 25.9302128 51.3674522 26.8378723 51.3905391 27.8923404L52.3858435 27.8923404 52.6231261 25.4885106C52.7129087 24.7046809 52.9604522 24.2565957 53.3657565 24.1442553 53.7710609 24.0319149 55.3807348 23.9757447 58.1947783 23.9757447L59.4106913 23.9604255 59.4953435 34.4119149C59.4953435 36.9893617 59.4671261 39.9587234 59.4106913 43.32 59.3760609 44.2046809 59.1567348 44.7638298 58.7514304 45L58.7514304 45zM76.9811478 46.2434043C78.370213 46.2204255 79.7579957 46.2319149 81.143213 46.2765957 83.0786696 46.332766 85.053887 46.3557447 87.0688652 46.3442553 89.0838435 46.332766 90.5806478 46.2880851 91.5605609 46.2089362 91.5708217 45.0995745 91.6054522 44.1485106 91.661887 43.3531915 91.7183217 42.546383 91.8132348 41.5940426 91.9491913 40.4961702L90.8512783 40.4961702 89.9560174 44.1931915C89.5956043 44.3719149 88.8504087 44.5289362 87.7191478 44.6629787 86.587887 44.7982979 85.4476478 44.8659574 84.299713 44.8659574L83.5750391 44.8659574C82.2129087 44.8659574 80.6866043 44.7919149 78.9986913 44.646383 78.930713 40.7476596 78.8973652 37.3417021 78.8973652 34.4297872 78.8973652 31.8523404 78.9255826 28.8829787 78.9820174 25.5217021 79.0153652 24.6382979 79.212887 24.0765957 79.5720174 23.8417021 79.9324304 23.6068085 80.776387 23.4880851 82.1051696 23.4880851L82.1051696 23.472766 82.1051696 22.4476596C80.2518 22.5268085 78.6498217 22.5651064 77.3018 22.5651064 75.9537783 22.5651064 74.3466696 22.5268085 72.4817565 22.4476596L72.4817565 23.472766 72.4817565 23.4880851C73.8477348 23.4880851 74.7147783 23.6068085 75.0841696 23.8417021 75.4535609 24.0765957 75.643387 24.6382979 75.6549304 25.5217021L75.7395826 34.4119149C75.7395826 37.0557447 75.7113652 40.0978723 75.6549304 43.5370213 75.643387 44.052766 75.5369304 44.4280851 75.3342783 44.6629787 75.1316261 44.8991489 74.6647565 45.2004255 73.9336696 45.5706383L73.9336696 45.587234 73.9336696 46.3940426C74.5749739 46.3148936 75.5908 46.2651064 76.9811478 46.2434043L76.9811478 46.2434043zM114.08317 26.5480851C114.08317 25.2255319 114.262735 24.3855319 114.623148 24.0268085 114.982278 23.6680851 115.832648 23.4880851 117.171691 23.4880851L117.171691 23.472766 117.171691 22.4476596C115.569713 22.5268085 114.188343 22.5651064 113.027583 22.5651064 111.877083 22.5651064 110.500843 22.5268085 108.898865 22.4476596L108.898865 23.472766 108.898865 23.4880851C110.407213 23.4880851 111.366604 23.6680851 111.778322 24.0268085 112.188757 24.3855319 112.405517 25.2255319 112.428604 26.5480851L112.4953 34.6634043 112.4953 36.7480851C112.4953 39.4825532 111.884778 41.4817021 110.6663 42.7468085 109.445257 44.0144681 107.51493 44.646383 104.872757 44.646383 102.534561 44.646383 100.824843 44.1446809 99.7461696 43.1425532 98.666213 42.1404255 98.1275174 40.5574468 98.1275174 38.3948936L98.1108435 34.6480851C98.0993 32.0029787 98.1326478 28.9621277 98.210887 25.5217021 98.2455174 24.6382979 98.4417565 24.0765957 98.8021696 23.8417021 99.1625826 23.6068085 100.006539 23.4880851 101.335322 23.4880851L101.335322 23.472766 101.335322 22.4476596C99.4665609 22.5268085 97.8504739 22.5651064 96.4896261 22.5651064 95.1390391 22.5651064 93.5280826 22.5268085 91.6606043 22.4476596L91.6606043 23.472766 91.6606043 23.4880851C93.0342783 23.4880851 93.9064522 23.6068085 94.2771261 23.8417021 94.6490826 24.0765957 94.8337783 24.6382979 94.8337783 25.5217021L94.8337783 38.5965957C94.8337783 41.4753191 95.5879522 43.553617 97.0963 44.8314894 98.6046478 46.1080851 101.058278 46.7476596 104.458474 46.7476596 107.677822 46.7476596 110.089126 45.9102128 111.69367 44.2340426 113.29693 42.5604255 114.09343 40.0417021 114.08317 36.6804255L114.08317 26.5480851zM100.329757 17.7931915C99.9757565 18.1506383 99.7987565 18.5885106 99.7987565 19.1029787 99.7987565 19.6174468 99.9757565 20.052766 100.329757 20.4051064 100.685039 20.7587234 101.121126 20.933617 101.6393 20.933617 102.156191 20.933617 102.592278 20.7587234 102.947561 20.4051064 103.301561 20.052766 103.479843 19.6174468 103.479843 19.1029787 103.479843 18.5885106 103.301561 18.1506383 102.947561 17.7931915 102.592278 17.4331915 102.156191 17.2544681 101.6393 17.2544681 101.121126 17.2544681 100.685039 17.4331915 100.329757 17.7931915L100.329757 17.7931915zM107.6573 17.7931915C107.3033 18.1506383 107.1263 18.5885106 107.1263 19.1029787 107.1263 19.6174468 107.3033 20.052766 107.6573 20.4051064 108.012583 20.7587234 108.44867 20.933617 108.966843 20.933617 109.483735 20.933617 109.921104 20.7587234 110.275104 20.4051064 110.629104 20.052766 110.806104 19.6174468 110.806104 19.1029787 110.806104 18.5885106 110.629104 18.1506383 110.275104 17.7931915 109.921104 17.4331915 109.483735 17.2544681 108.966843 17.2544681 108.44867 17.2544681 108.012583 17.4331915 107.6573 17.7931915L107.6573 17.7931915z"/></g></svg>